<?xml version="1.0" ?><svg id="Layer_1_1_" style="enable-background:new 0 0 64 64;" version="1.1" viewBox="0 0 64 64" xml:space="preserve" xmlns="http://www.w3.org/2000/svg" xmlns:xlink="http://www.w3.org/1999/xlink"><g><path d="M48,25.432V24h2v-4h3v-6h-5.703L27,0.807L6.703,14H1v6h3v4h2v16H4v4H1v6h24.986   C28.506,57.542,35.621,63,44,63c10.477,0,19-8.523,19-19C63,34.896,56.561,27.275,48,25.432z M46,25.107   C45.342,25.038,44.676,25,44,25v-1h2V25.107z M25.107,42C25.038,42.658,25,43.324,25,44h-7v-2H25.107z M25.432,40H24v-2h-2v2h-2V24   h2v12h2V24h2v-4h2v4h2v7.2C27.767,33.64,26.153,36.652,25.432,40z M18,22v-2h6v2H18z M30,22v-2h6v2H30z M32,24h2v3.875   c-0.695,0.432-1.369,0.895-2,1.41V24z M36,24h2v-4h2v4h2v1.107c-2.126,0.224-4.14,0.815-6,1.683V24z M48,22h-6v-2h6V22z M27,6   c1.654,0,3,1.346,3,3s-1.346,3-3,3s-3-1.346-3-3S25.346,6,27,6z M28.758,4.336C28.209,4.128,27.621,4,27,4   s-1.209,0.128-1.758,0.336L27,3.193L28.758,4.336z M23.424,5.517C22.546,6.419,22,7.645,22,9c0,2.757,2.243,5,5,5s5-2.243,5-5   c0-1.355-0.546-2.581-1.424-3.483L43.626,14H27H10.374L23.424,5.517z M3,18v-2h0.626h46.747H51v2h-1H40h-2H28h-2H16h-2H4H3z M12,20   v2H6v-2H12z M8,24h2v2h2v-2h2v-4h2v4h2v16h-2v4h-2v-4h-2V28h-2v12H8V24z M6,42h6v2H6V42z M3,48v-2h1h10h2h9.107   c0.071,0.679,0.183,1.344,0.325,2H3z M44,61c-9.374,0-17-7.626-17-17c0-4.68,1.901-8.923,4.971-12H32v-0.029   C35.077,28.901,39.32,27,44,27c9.374,0,17,7.626,17,17S53.374,61,44,61z" style="fill:#3F3A34;"/><path d="M39,38h-6v12h6V38z M37,48h-2v-8h2V48z" style="fill:#3F3A34;"/><path d="M47,36h-6v14h6V36z M45,48h-2V38h2V48z" style="fill:#3F3A34;"/><path d="M49,50h6V34h-6V50z M51,36h2v12h-2V36z" style="fill:#3F3A34;"/><path d="M44,57c-3.05,0-6.018-1.083-8.356-3.049l-1.287,1.531C37.055,57.75,40.479,59,44,59   s6.945-1.25,9.644-3.518l-1.287-1.531C50.018,55.917,47.05,57,44,57z" style="fill:#3F3A34;"/></g></svg>