<?xml version="1.0" ?><svg id="Layer_1_1_" style="enable-background:new 0 0 64 64;" version="1.1" viewBox="0 0 64 64" xml:space="preserve" xmlns="http://www.w3.org/2000/svg" xmlns:xlink="http://www.w3.org/1999/xlink"><g><path d="M46,15c-2.206,0-4,1.794-4,4s1.794,4,4,4s4-1.794,4-4S48.206,15,46,15z M46,21c-1.103,0-2-0.897-2-2   s0.897-2,2-2s2,0.897,2,2S47.103,21,46,21z" style="fill:#3F3A34;"/><path d="M56.734,15c-2.416-4.903-7.06-7.706-13.207-7.979V1h-1c-3.301,0-6.04,2.612-6.497,6h-9.267   c-8.929,0-16.229,7.541-16.716,17H8.444C8.788,23.409,9,22.732,9,22c0-2.206-1.794-4-4-4c-0.732,0-1.409,0.212-2,0.556V12H1v10   c0,2.206,1.794,4,4,4h5.036c0.168,3.304,1.164,6.448,2.911,9.176C6.217,36.183,1,42.035,1,49c0,7.72,6.28,14,14,14   c0.338,0,0.668-0.027,1-0.051V63h32v-4h6v-6H28.41C28.79,51.731,29,50.39,29,49c0-2.087-0.471-4.129-1.364-6H33v4h14v-4.276   c4.117-0.855,7.74-3.682,9.734-7.724H63V15H56.734z M3,22c0-1.103,0.897-2,2-2s2,0.897,2,2s-0.897,2-2,2S3,23.103,3,22z M3,49   c0-6.492,5.284-11.87,11.78-11.988v0C14.837,37.01,14.893,37.008,15,37c4.09,0,7.86,2.062,10.085,5.515   C26.338,44.457,27,46.699,27,49c0,6.617-5.383,12-12,12S3,55.617,3,49z M28,55v2h-1.527c0.441-0.63,0.823-1.3,1.157-2H28z M30,59v2   h-2v-2H30z M32,59h2v2h-2V59z M36,59h2v2h-2V59z M40,59h2v2h-2V59z M42.003,57v-2h2l0,2H42.003z M40.003,57H38v-2h2.003V57z M36,57   h-2v-2h2V57z M32,57h-2v-2h2V57z M24.779,59H26v2h-3.826C23.119,60.433,23.996,59.766,24.779,59z M46,61h-2v-2h2V61z M47,57h-0.996   l0-2h2.002v2H48H47z M52,57h-1.995v-2H52V57z M61,33h-5.554l-0.264,0.597C53.198,38.094,48.959,41,44.382,41H39v2h5.382   c0.207,0,0.412-0.013,0.618-0.023V45H35v-2h2v-2H26.764c-0.097,0-0.193-0.002-0.289-0.004c-2.579-3.697-6.726-5.916-11.229-5.994   c-0.139-0.184-0.273-0.371-0.402-0.562C12.982,31.687,12,28.423,12,25c0-8.822,6.623-16,14.764-16h11.2V8   c0-2.381,1.526-4.378,3.563-4.879V9h1c6.055,0,10.549,2.629,12.655,7.403L55.446,17H61V33z" style="fill:#3F3A34;"/><path d="M17.5,41H16v-2h-2v2h-1.5C10.019,41,8,43.019,8,45.5s2.019,4.5,4.5,4.5h5c1.379,0,2.5,1.121,2.5,2.5   S18.879,55,17.5,55h-5c-1.379,0-2.5-1.121-2.5-2.5V52H8v0.5c0,2.481,2.019,4.5,4.5,4.5H14v2h2v-2h1.5c2.481,0,4.5-2.019,4.5-4.5   S19.981,48,17.5,48h-5c-1.379,0-2.5-1.121-2.5-2.5s1.121-2.5,2.5-2.5h5c1.379,0,2.5,1.121,2.5,2.5V46h2v-0.5   C22,43.019,19.981,41,17.5,41z" style="fill:#3F3A34;"/></g></svg>