<?xml version="1.0" ?><!DOCTYPE svg  PUBLIC '-//W3C//DTD SVG 1.1//EN'  'http://www.w3.org/Graphics/SVG/1.1/DTD/svg11.dtd'><svg height="512px" style="enable-background:new 0 0 512 512;" version="1.1" viewBox="0 0 512 512" width="512px" xml:space="preserve" xmlns="http://www.w3.org/2000/svg" xmlns:xlink="http://www.w3.org/1999/xlink"><g id="_x36_79_x2C__Accounting_x2C__audit_x2C__banking_x2C__calculation_x2C__calculator"><g><path d="M398.135,319.152l0.057,0.112c1.221,1.675,2.555,3.234,4,4.71l0.172,0.17    c1.105,1.107,2.211,2.101,3.32,2.98c1.162,0.935,2.383,1.815,3.601,2.609c0.313,0.197,0.569,0.426,0.797,0.708    c5.587,3.32,12.083,5.221,19.008,5.221c10.269,0,19.632-4.199,26.384-10.979c6.78-6.752,10.979-16.113,10.979-26.385v-26.014    h-74.729v26.014C391.723,306.017,394.078,313.193,398.135,319.152 M305.164,92.586V63.648l0.028-0.568v-0.057v-0.51v-0.057    c0.284-12.285,4.77-22.045,11.578-28.965l0.196-0.229c1.902-1.9,3.973-3.574,6.216-5.022l-193.886-1.956    c-6.724,0-12.824,2.779-17.277,7.207c-4.453,4.48-7.233,10.637-7.317,17.332l0.028,41.762H305.164z M365.767,333.025l-0.031-0.37    c0-45.278,0.116-100.401,0.256-156.717l0.144-76.374H308.77h-0.113h-0.088c-74.64,0-149.283,0-223.927,0v343.112l280.953-0.936    L365.767,333.025z M372.715,329.195h24.627c-1.818-1.873-3.433-3.859-4.91-6.016c-2.154-2.978-3.969-6.212-5.391-9.646    c-2.354-5.645-3.629-11.8-3.629-18.24V63.648c0-4.596-0.937-8.965-2.582-12.938c-1.703-4.113-4.227-7.857-7.377-10.979    l-0.169-0.198c-6.868-6.78-15.491-10.383-24.058-11.008c-10.356,0.057-19.748,3.83-26.5,10.215    c-6.213,5.871-10.186,14.014-10.554,23.488v0.398v0.084v0.428v0.027l-0.028,0.482v28.938h57.451c1.93,0,3.488,1.561,3.488,3.49    l-0.369,231.02V329.195z M58.457,394.163v-14.128H33.35v14.128l12.54,26.47L58.457,394.163z M58.457,205.047H33.35v6.27h25.107    V205.047z M58.457,218.295H33.35v154.76h9.048V232.396c0-1.931,1.562-3.49,3.492-3.49c1.927,0,3.488,1.56,3.488,3.49v140.658    h9.079V218.295z M58.457,198.068v-23.209c0-0.623-0.284-1.219-0.708-1.645l-0.116-0.113c-0.396-0.369-0.933-0.567-1.502-0.567    H33.603l-0.197,0.085l-0.056,0.197v25.252H58.457z M335.55,244.596h-38.384c-1.93,0-3.492-1.59-3.492-3.49v-27.094    c0-1.929,1.563-3.49,3.492-3.49h38.384c1.931,0,3.488,1.562,3.488,3.49v27.094C339.038,243.006,337.48,244.596,335.55,244.596z     M300.654,237.616h31.407v-20.114h-31.407V237.616z M274.895,244.596h-38.386c-1.927,0-3.488-1.59-3.488-3.49v-27.094    c0-1.929,1.562-3.49,3.488-3.49h38.386c1.931,0,3.489,1.562,3.489,3.49v27.094C278.384,243.006,276.825,244.596,274.895,244.596z     M240,237.616h31.406v-20.114H240V237.616z M214.24,244.596h-38.387c-1.93,0-3.488-1.59-3.488-3.49v-27.094    c0-1.929,1.558-3.49,3.488-3.49h38.387c1.927,0,3.489,1.562,3.489,3.49v27.094C217.729,243.006,216.167,244.596,214.24,244.596z     M179.342,237.616h31.407v-20.114h-31.407V237.616z M153.582,244.596h-38.383c-1.93,0-3.492-1.59-3.492-3.49v-27.094    c0-1.929,1.562-3.49,3.492-3.49h38.383c1.931,0,3.489,1.562,3.489,3.49v27.094C157.071,243.006,155.513,244.596,153.582,244.596z     M118.688,237.616h31.406v-20.114h-31.406V237.616z M332.062,375.211h-31.407v31.407h31.407V375.211z M297.166,368.232h38.384    c1.931,0,3.488,1.561,3.488,3.49v38.384c0,1.931-1.558,3.49-3.488,3.49h-38.384c-1.93,0-3.492-1.56-3.492-3.49v-38.384    C293.674,369.793,295.236,368.232,297.166,368.232z M271.406,375.211H240v31.407h31.406V375.211z M236.508,368.232h38.386    c1.931,0,3.489,1.561,3.489,3.49v38.384c0,1.931-1.559,3.49-3.489,3.49h-38.386c-1.927,0-3.488-1.56-3.488-3.49v-38.384    C233.02,369.793,234.582,368.232,236.508,368.232z M210.749,375.211h-31.407v31.407h31.407V375.211z M175.854,368.232h38.387    c1.927,0,3.489,1.561,3.489,3.49v38.384c0,1.931-1.562,3.49-3.489,3.49h-38.387c-1.93,0-3.488-1.56-3.488-3.49v-38.384    C172.365,369.793,173.923,368.232,175.854,368.232z M150.094,375.211h-31.406v31.407h31.406V375.211z M115.199,368.232h38.383    c1.931,0,3.489,1.561,3.489,3.49v38.384c0,1.931-1.558,3.49-3.489,3.49h-38.383c-1.93,0-3.492-1.56-3.492-3.49v-38.384    C111.707,369.793,113.269,368.232,115.199,368.232z M332.062,320.457h-31.407v31.378h31.407V320.457z M297.166,313.478h38.384    c1.931,0,3.488,1.56,3.488,3.49v38.357c0,1.929-1.558,3.488-3.488,3.488h-38.384c-1.93,0-3.492-1.56-3.492-3.488v-38.357    C293.674,315.037,295.236,313.478,297.166,313.478z M271.406,320.457H240v31.378h31.406V320.457z M236.508,313.478h38.386    c1.931,0,3.489,1.56,3.489,3.49v38.357c0,1.929-1.559,3.488-3.489,3.488h-38.386c-1.927,0-3.488-1.56-3.488-3.488v-38.357    C233.02,315.037,234.582,313.478,236.508,313.478z M210.749,320.457h-31.407v31.378h31.407V320.457z M175.854,313.478h38.387    c1.927,0,3.489,1.56,3.489,3.49v38.357c0,1.929-1.562,3.488-3.489,3.488h-38.387c-1.93,0-3.488-1.56-3.488-3.488v-38.357    C172.365,315.037,173.923,313.478,175.854,313.478z M150.094,320.457h-31.406v31.378h31.406V320.457z M115.199,313.478h38.383    c1.931,0,3.489,1.56,3.489,3.49v38.357c0,1.929-1.558,3.488-3.489,3.488h-38.383c-1.93,0-3.492-1.56-3.492-3.488v-38.357    C111.707,315.037,113.269,313.478,115.199,313.478z M332.062,265.673h-31.407v31.407h31.407V265.673z M297.166,258.694h38.384    c1.931,0,3.488,1.56,3.488,3.49v38.386c0,1.928-1.558,3.488-3.488,3.488h-38.384c-1.93,0-3.492-1.561-3.492-3.488v-38.386    C293.674,260.254,295.236,258.694,297.166,258.694z M271.406,265.673H240v31.407h31.406V265.673z M236.508,258.694h38.386    c1.931,0,3.489,1.56,3.489,3.49v38.386c0,1.928-1.559,3.488-3.489,3.488h-38.386c-1.927,0-3.488-1.561-3.488-3.488v-38.386    C233.02,260.254,234.582,258.694,236.508,258.694z M210.749,265.673h-31.407v31.407h31.407V265.673z M175.854,258.694h38.387    c1.927,0,3.489,1.56,3.489,3.49v38.386c0,1.928-1.562,3.488-3.489,3.488h-38.387c-1.93,0-3.488-1.561-3.488-3.488v-38.386    C172.365,260.254,173.923,258.694,175.854,258.694z M150.094,265.673h-31.406v31.407h31.406V265.673z M115.199,258.694h38.383    c1.931,0,3.489,1.56,3.489,3.49v38.386c0,1.928-1.558,3.488-3.489,3.488h-38.383c-1.93,0-3.492-1.561-3.492-3.488v-38.386    C111.707,260.254,113.269,258.694,115.199,258.694z M335.293,126.688H115.452v62.586h219.841V126.688z M132.901,112.928    c1.305,0,2.695-0.852,3.12-1.957c1.166-2.326-0.596-4.994-3.12-4.994h-6.98c-1.302,0-2.695,0.852-3.12,1.959    c-1.162,2.324,0.597,4.992,3.12,4.992H132.901z M160.787,112.928c1.306,0,2.695-0.852,3.124-1.957    c1.162-2.326-0.597-4.994-3.124-4.994h-6.977c-1.306,0-2.695,0.852-3.12,1.959c-1.165,2.324,0.593,4.992,3.12,4.992H160.787z     M188.677,112.928c1.306,0,2.695-0.852,3.12-1.957c1.165-2.326-0.597-4.994-3.12-4.994h-6.98c-1.333,0-2.695,0.852-3.148,1.959    c-1.134,2.324,0.625,4.992,3.148,4.992H188.677z M216.536,112.928c1.333,0,2.695-0.852,3.151-1.957    c1.162-2.326-0.625-4.994-3.151-4.994h-6.949c-1.333,0-2.695,0.852-3.151,1.959c-1.162,2.324,0.625,4.992,3.151,4.992H216.536z     M244.426,112.928c1.333,0,2.695-0.852,3.148-1.957c1.165-2.326-0.625-4.994-3.148-4.994h-6.953c-1.333,0-2.695,0.852-3.148,1.959    c-1.165,2.324,0.625,4.992,3.148,4.992H244.426z M272.312,112.928c1.334,0,2.695-0.852,3.152-1.957    c1.161-2.326-0.625-4.994-3.152-4.994h-6.977c-1.306,0-2.667,0.852-3.123,1.959c-1.162,2.324,0.597,4.992,3.123,4.992H272.312z     M300.202,112.928c1.306,0,2.695-0.852,3.12-1.957c1.161-2.326-0.597-4.994-3.12-4.994h-6.98c-1.306,0-2.695,0.852-3.12,1.959    c-1.165,2.324,0.597,4.992,3.12,4.992H300.202z M328.089,112.928c1.306,0,2.695-0.852,3.12-1.957    c1.165-2.326-0.594-4.994-3.12-4.994h-6.98c-1.302,0-2.692,0.852-3.12,1.959c-1.162,2.324,0.597,4.992,3.12,4.992H328.089z     M135.652,50.854c-1.93,0-3.489-1.561-3.489-3.488c0-1.931,1.559-3.49,3.489-3.49h76.261c1.899,0,3.489,1.56,3.489,3.49    c0,1.928-1.59,3.488-3.489,3.488H135.652z M135.652,73.719c-1.93,0-3.489-1.56-3.489-3.488c0-1.93,1.559-3.49,3.489-3.49h117.112    c1.902,0,3.492,1.561,3.492,3.49c0,1.929-1.59,3.488-3.492,3.488H135.652z M41.604,467.019c-1.93,0-3.488-1.561-3.488-3.49    c0-1.929,1.558-3.488,3.488-3.488h307.281c1.927,0,3.489,1.56,3.489,3.488c0,1.93-1.563,3.49-3.489,3.49H41.604z M221.53,485.715    c-1.93,0-3.489-1.562-3.489-3.49c0-1.928,1.559-3.49,3.489-3.49h212.637c1.927,0,3.488,1.563,3.488,3.49    c0,1.929-1.562,3.49-3.488,3.49H221.53z M455.926,485.715c-1.931,0-3.488-1.562-3.488-3.49c0-1.928,1.558-3.49,3.488-3.49h26.584    c1.927,0,3.489,1.563,3.489,3.49c0,1.929-1.563,3.49-3.489,3.49H455.926z M29.49,485.146c-1.927,0-3.488-1.56-3.488-3.488    c0-1.93,1.562-3.49,3.488-3.49h100.772c1.902,0,3.492,1.561,3.492,3.49c0,1.929-1.59,3.488-3.492,3.488H29.49z M111.963,119.707    h226.822c1.928,0,3.488,1.563,3.488,3.49v69.564c0,1.902-1.561,3.462-3.488,3.462H111.963c-1.93,0-3.488-1.56-3.488-3.462v-69.564    C108.475,121.27,110.033,119.707,111.963,119.707z" style="fill-rule:evenodd;clip-rule:evenodd;"/></g></g><g id="Layer_1"/></svg>